<svg id="Layer_1" data-name="Layer 1" xmlns="http://www.w3.org/2000/svg" viewBox="0 0 60 60"><title>build</title><path d="M59,0H1A1,1,0,0,0,0,1V47a1,1,0,0,0,1,1H23V58H20v2H36V58H25V48H35V46H2V38H35V36H6V6H54V22h2V5a1,1,0,0,0-1-1H5A1,1,0,0,0,4,5V36H2V2H58V22h2V1A1,1,0,0,0,59,0Z"/><path d="M59,26H39a1,1,0,0,0-1,1V59a1,1,0,0,0,1,1H59a1,1,0,0,0,1-1V27A1,1,0,0,0,59,26Zm-1,2v4H40V28Zm0,6V53H40V34ZM40,58V55H58v3Z"/><rect x="47" y="29" width="4" height="2"/><path d="M43,44H55a1,1,0,0,0,1-1V37a1,1,0,0,0-1-1H43a1,1,0,0,0-1,1v6A1,1,0,0,0,43,44Zm1-6H54v4H44Z"/><rect x="42" y="46" width="14" height="2"/><rect x="42" y="49" width="14" height="2"/><path d="M52,19V9a1,1,0,0,0-1-1H9A1,1,0,0,0,8,9V19a1,1,0,0,0,1,1H51A1,1,0,0,0,52,19Zm-2-1H10V10H50Z"/><path d="M9,22a1,1,0,0,0-1,1V33a1,1,0,0,0,1,1H21a1,1,0,0,0,1-1V23a1,1,0,0,0-1-1ZM20,32H10V24H20Z"/><rect x="24" y="23" width="8" height="2"/><rect x="24" y="27" width="10" height="2"/><rect x="24" y="31" width="10" height="2"/></svg>