<svg id="Layer_1" data-name="Layer 1" xmlns="http://www.w3.org/2000/svg" viewBox="0 0 60 60"><title>design</title><path d="M41,53H39V10a1,1,0,0,0,0-.29l-3-9a1,1,0,0,0-1.9,0l-3,9A1,1,0,0,0,31,10s0,0,0,0V59a1,1,0,0,0,1,1h6a1,1,0,0,0,1-1V55h3a1,1,0,0,0,1-1V24H41ZM33,11h4V47H33Zm2-6.84L36.61,9H33.39ZM37,58H33V49h4Z"/><path d="M59,0H48a1,1,0,0,0-1,1V59a1,1,0,0,0,1,1H59a1,1,0,0,0,1-1V1A1,1,0,0,0,59,0ZM58,58H49V51h5V49H49V41h5V39H49V31h5V29H49V21h5V19H49V11h5V9H49V2h9Z"/><path d="M14,10A14,14,0,0,0,8,36.65V49a1,1,0,0,0,1,1h4v3h2V50h4a1,1,0,0,0,1-1V36.65A14,14,0,0,0,14,10Zm4,38H10V45h8Zm.61-12.92A1,1,0,0,0,18,36v7H10V41h5V39H10V36a1,1,0,0,0-.61-.92,12,12,0,1,1,9.23,0Z"/><polygon points="16.29 18.29 14 20.59 11.71 18.29 10.29 19.71 13 22.41 13 33 15 33 15 22.41 17.71 19.71 16.29 18.29"/></svg>