<?xml version="1.0" encoding="utf-8"?>
<!-- Generator: Adobe Illustrator 18.1.1, SVG Export Plug-In . SVG Version: 6.00 Build 0)  -->
<svg version="1.1" id="Layer_1" xmlns="http://www.w3.org/2000/svg" xmlns:xlink="http://www.w3.org/1999/xlink" x="0px" y="0px"
	 width="858.8px" height="824.7px" viewBox="0 0 858.8 824.7" enable-background="new 0 0 858.8 824.7" xml:space="preserve">
<g>
	<polygon fill="#E21622" points="743.8,206.2 701.7,310.5 701.7,824.2 747.2,824.2 747.2,206.7 	"/>
	<polygon fill="#E21622" points="155.9,186.3 155.9,288.6 371.5,824.2 416.3,824.2 159.3,185.8 	"/>
	<polygon fill="#E21622" points="456.7,670.1 719.7,1 674.6,1 432.5,616.9 453.3,670.1 	"/>
	<rect y="1" fill="#E21622" width="44.3" height="823.3"/>
	<polygon fill="#F5F2EF" points="720.1,0 719.7,1 456.7,670.1 453.3,670.1 432.5,616.9 191,0 44.3,0 44.3,1 44.3,824.2 44.3,824.7 
		155.9,824.7 155.9,288.6 155.9,186.3 159.3,185.8 416.3,824.2 416.5,824.7 494.1,824.7 701.7,310.5 743.8,206.2 747.2,206.7 
		747.2,824.2 747.2,824.7 858.8,824.7 858.8,0 	"/>
</g>
</svg>
