<svg id="Layer_1" data-name="Layer 1" xmlns="http://www.w3.org/2000/svg" viewBox="0 0 60 60"><title>research</title><path d="M17,39H7a7,7,0,0,0-7,7V60H2V46a5,5,0,0,1,5-5H17a5,5,0,0,1,5,5V60h2V46A7,7,0,0,0,17,39Z"/><path d="M11,38h2a5,5,0,0,0,5-5V30a5,5,0,0,0-5-5H11a5,5,0,0,0-5,5v3A5,5,0,0,0,11,38ZM8,30a3,3,0,0,1,3-3h2a3,3,0,0,1,3,3v3a3,3,0,0,1-3,3H11a3,3,0,0,1-3-3Z"/><rect x="5" y="49" width="2" height="11"/><rect x="17" y="49" width="2" height="11"/><path d="M60,10.94a1,1,0,0,0-.05-.26.81.81,0,0,0,0-.09,1,1,0,0,0-.2-.29l-10-10a1,1,0,0,0-.29-.2l-.09,0A1,1,0,0,0,49.06,0H9A1,1,0,0,0,8,1V21h2V2H48v9a1,1,0,0,0,1,1h9v7h2V11S60,11,60,10.94ZM50,10V3.41L56.59,10Z"/><path d="M60,31A14,14,0,1,0,42,44.41V48H40a1,1,0,0,0-1,1v9H28v2H59a1,1,0,0,0,1-1V43H58V58H53V49a1,1,0,0,0-1-1H50V44.41A13.93,13.93,0,0,0,60,31ZM51,58H41V57h5V55H41V53h5V51H41V50H51ZM44,48V43.64a1,1,0,0,0-.77-1,12,12,0,1,1,5.54,0,1,1,0,0,0-.77,1V48Z"/><path d="M56,31A10,10,0,1,0,46,41,10,10,0,0,0,56,31ZM46,39a8,8,0,1,1,8-8A8,8,0,0,1,46,39Z"/><rect x="13" y="5" width="2" height="2"/><rect x="13" y="9" width="16" height="2"/><rect x="17" y="5" width="2" height="2"/><rect x="13" y="15" width="2" height="2"/><rect x="17" y="15" width="2" height="2"/><rect x="13" y="19" width="2" height="2"/><rect x="17" y="19" width="10" height="2"/><rect x="45" y="26" width="2" height="2"/><rect x="45" y="34" width="2" height="2"/><rect x="41" y="30" width="2" height="2"/><rect x="49" y="30" width="2" height="2"/></svg>